<svg width="64" height="64" viewBox="0 0 256 256" fill="none" xmlns="http://www.w3.org/2000/svg">
  <circle cx="128" cy="128" r="120" fill="#25D366" filter="url(#glow)"/>
  <path fill="white" d="M180.8,152.9c-3.5-1.8-20.8-10.3-24-11.4s-5.5-1.7-7.8,1.7-9,11.4-11.1,13.7-4.1,2.6-7.6,0.9-14.8-5.5-28.1-17.7c-10.4-9.3-17.4-20.8-19.5-24.3s-0.2-5.3,1.6-7c1.6-1.6,3.5-4.1,5.2-6.1a23.5,23.5,0,0,0,3.6-6.1c1.2-2.2,0.6-4.3-0.3-6.1s-7.8-18.7-10.7-25.6c-2.8-6.7-5.7-5.8-7.8-5.9-2-.1-4.3-.1-6.6-.1a12.7,12.7,0,0,0-9.3,4.2c-3.2,3.5-12.2,11.9-12.2,29.1s12.5,33.7,14.3,36.1,24.6,37.6,59.7,52.7a202.6,202.6,0,0,0,20.1,7.4c8.4,2.6,16,2.3,22,1.4,6.7-1,20.8-8.5,23.8-16.7s2.9-15.1,2-16.6S184.2,154.6,180.8,152.9Z"/>
  <defs>
    <filter id="glow" x="-50%" y="-50%" width="200%" height="200%">
      <feGaussianBlur in="SourceGraphic" stdDeviation="8" result="blur"/>
      <feMerge>
        <feMergeNode in="blur"/>
        <feMergeNode in="SourceGraphic"/>
      </feMerge>
    </filter>
  </defs>
</svg>